<svg width="275" height="218" viewBox="0 0 275 218" fill="none" xmlns="http://www.w3.org/2000/svg">
<path d="M136.454 215.6L269.125 137.218C273.35 134.85 276.97 130.955 272.851 128.408L139.706 51.7648C137.712 50.5319 134.672 49.7155 132.646 50.8994L-6.62806 131.657C-10.8527 134.107 -11.6126 140.957 -7.37984 143.406L118.926 215.477C124.334 218.62 131.003 218.667 136.454 215.6Z" fill="#F0374A"/>
<path opacity="0.48" d="M76.1976 118.128L70.9842 110.894L64.1774 108.502L53.718 113.115L-1.9458 142.133L18.8015 153.253C27.2752 148.387 67.8709 123.288 76.1976 118.128Z" fill="url(#paint0_linear)"/>
<path opacity="0.48" d="M233.677 129.412L162.512 166.431L91.2412 125.215L161.45 84.3586" fill="url(#paint1_linear)"/>
<path d="M158.655 87.2572L233.677 129.616V43.1755L158.876 0.0163574L158.655 87.2572Z" fill="#FFA7B1"/>
<path d="M151.154 91.6744L226.176 134.025V47.5927L151.366 4.43359L151.154 91.6744Z" fill="#A4424C"/>
<path d="M142.917 95.1361L217.939 137.487V51.0544L143.138 7.89526L142.917 95.1361Z" fill="#6D2A31"/>
<path opacity="0.48" d="M91.576 159.76C81.9173 165.386 71.9645 170.375 62.2896 175.976L95.3512 193.873L120.2 178.156L91.576 159.76Z" fill="url(#paint2_linear)"/>
<ellipse cx="179.556" cy="75.5281" rx="14.316" ry="20.6493" transform="rotate(-10.09 179.556 75.5281)" fill="white"/>
<path d="M186.806 68.4944L175.775 79.8108L172.506 76.3326C171.624 77.296 171.395 77.5328 170.455 78.4391L175.995 84.8811L188.669 70.6662L186.806 68.4944Z" fill="#1E8C0E"/>
<path d="M72.7656 120.365V103.587L87.8011 95.1934V111.858L72.7656 120.365Z" fill="#B24F28"/>
<path d="M72.7655 103.587L58.1386 95.1934C58.1386 95.1934 57.73 112.111 58.1386 112.339C58.5472 112.568 72.7655 120.325 72.7655 120.325V103.587Z" fill="#C96336"/>
<path d="M58.1387 95.1933L72.7655 86.261L87.801 95.1933L72.7655 103.587L58.1387 95.1933Z" fill="#DB7D58"/>
<path d="M63.7114 91.7967L78.9348 100.141V108.894L83.3147 106.689V97.6917L68.0913 89.1187L63.7114 91.7967Z" fill="#FDEDCB"/>
<path d="M33.853 62.4933C23.5734 63.2037 24.1127 79.8109 23.4181 86.7019C23.2465 88.4329 25.9104 89.0126 26.0902 87.2653C26.6703 81.55 26.2863 73.7444 29.4813 68.6986C30.47 67.1391 31.6386 65.6041 33.6651 65.4327C34.9162 65.3864 36.1301 65.8626 37.0154 66.7472C37.9142 67.5637 38.3963 70.7724 38.5434 71.7277C39.0769 75.2858 39.1374 78.8987 38.7232 82.4726C38.5434 84.2035 41.1746 84.7832 41.3952 83.0359C41.9672 77.6472 43.005 61.8565 33.853 62.4933Z" fill="#8CCC00"/>
<path d="M49.2239 73.6382L52.3127 78.782L58.4984 80.072L53.8571 96.026L40.7256 87.5347" fill="#DD842A"/>
<path d="M17.543 91.1353L49.2236 73.6382L48.194 99.6267L23.9821 101.946L17.543 91.1353Z" fill="#C13D3D"/>
<path d="M28.877 94.9975L33.7716 144.15L63.3849 126.399L58.4984 80.0723L28.877 94.9975Z" fill="#6D2A31"/>
<path d="M28.8769 94.9974L25.5266 91.1355H17.5432L14.1929 134.115L22.7892 138.075L33.7716 144.15L28.8769 94.9974Z" fill="#963842"/>
<path d="M47.0827 70.7071C36.7785 70.8051 36.3209 87.4123 35.2178 94.2462C34.94 95.9608 37.5712 96.6956 37.849 94.9729C38.7724 89.2575 38.8541 81.4928 42.3433 76.6347C43.7733 74.6425 46.2819 72.9688 48.7497 74.2751C50.956 75.4427 50.9886 78.0554 51.2011 80.2354C51.52 83.8192 51.3634 87.4294 50.7353 90.9721C50.4493 92.6867 53.0805 93.4216 53.3665 91.6988C54.2736 86.3182 56.2592 70.6255 47.0827 70.7071Z" fill="#8CCC00"/>
<path opacity="0.48" d="M171.419 187.341L166.206 180.107L159.383 177.715L148.94 182.32L132.67 192.509L145.745 201.564C154.243 196.698 163.052 192.46 171.419 187.341Z" fill="url(#paint3_linear)"/>
<path d="M145.442 128.449C147.114 128.352 148.783 128.678 150.296 129.396C151.845 130.274 153.052 131.649 153.72 133.299C154.464 134.866 154.799 137.103 156.351 138.116C156.957 138.438 157.482 138.893 157.887 139.447C158.654 140.532 158.832 141.927 158.361 143.17C157.675 144.55 154.799 145.391 153.459 145.137" fill="#8FDB5E"/>
<path d="M144.167 128.62C140.179 128.975 136.856 131.822 135.898 135.707C135.413 137.621 135.393 139.622 135.841 141.545C136.217 143.096 137.132 145.783 139.028 145.897C141.585 146.052 142.419 143.66 143.228 141.7C144.037 139.741 144.862 137.577 146.929 136.801C148.988 136.026 151.311 136.549 152.837 138.132L144.167 128.62Z" fill="#1E8C0E"/>
<path d="M155.861 139.006C154.317 137.005 153.034 134.825 151.538 132.792C150.697 131.461 149.689 130.243 148.539 129.167C144.985 127.444 140.507 129.02 137.917 132.049C138.276 132.155 138.783 132.18 139.052 132.278C140.634 132.882 142.039 133.873 143.138 135.16C144.715 136.899 145.941 139.03 147.33 140.875C149.593 143.88 152.592 146.346 156.466 144.549C158.901 143.406 156.956 140.434 155.861 139.006Z" fill="#8FDB5E"/>
<path d="M168.42 113.295C168.42 113.295 176.436 112.666 176.281 125.33C176.126 137.993 164.155 129.665 166.786 122.064" fill="#1E8C0E"/>
<path d="M167.26 125.738C167.17 121.884 171.509 119.067 175.162 118.577C174.581 116.365 172.334 112.805 167.913 112.919C162.43 113.058 158.312 118.635 157.389 125.166C156.465 131.698 161.417 135.936 161.417 135.936L164.065 138.189C168.951 136.287 167.137 129.273 167.26 125.738Z" fill="#8FDB5E"/>
<path d="M189.086 134.825C188.97 132.424 188.337 130.077 187.231 127.942C186.2 125.874 184.28 124.389 182.017 123.909L177.507 132.588C177.507 132.588 184.232 120.839 181.486 129.886C178.741 138.932 187.795 149.081 189.037 135.601C189.061 135.323 189.069 135.078 189.086 134.825Z" fill="#1E8C0E"/>
<path d="M157.201 157.425C157.201 157.425 151.171 161.345 152.846 170.489C153.438 173.668 154.336 176.782 155.526 179.789C156.694 182.769 157.552 186.623 160.56 188.305C163.362 189.872 167.701 190.158 170.529 188.435C173.119 186.859 174.034 183.275 174.99 180.605C176.12 177.325 176.896 173.934 177.303 170.489C180.146 148.354 157.201 157.425 157.201 157.425Z" fill="#68E1FD"/>
<ellipse cx="165.323" cy="158.764" rx="8.79246" ry="3.1761" fill="#34323D"/>
<path d="M166.034 141.831C164.808 138.867 162.512 136.377 161.785 133.201C160.857 128.793 162.639 124.256 166.32 121.655C166.99 121.166 166.32 120.023 165.666 120.537C160.044 124.619 158.958 131.584 162.234 137.52C163.248 139.357 164.58 141.12 165.201 143.153C166.018 145.799 165.103 147.709 163.861 149.685C163.929 147.724 163.228 145.814 161.908 144.362C160.445 143.006 158.288 142.778 156.482 142.174C152.976 140.99 149.896 138.989 149.299 135.087C149.176 134.27 147.918 134.613 148.041 135.429C148.531 138.622 150.631 140.9 153.45 142.353C155.144 143.084 156.889 143.69 158.672 144.166C160.233 144.766 161.478 145.983 162.112 147.53C162.929 149.44 162.381 150.755 161.908 152.608C161.303 155.017 160.339 157.083 161.997 159.361C162.488 160.03 163.632 159.361 163.117 158.707C160.478 155.074 164.694 151.62 166.116 148.493C167.055 146.365 167.025 143.935 166.034 141.831Z" fill="#1E8C0E"/>
<path d="M182.263 133.903C176.706 132.923 172.923 137.226 173.274 142.606C173.389 143.956 173.638 145.29 174.018 146.591C174.271 147.53 174.916 149.114 174.753 150.044C174.37 151.73 173.181 153.119 171.574 153.759C169.123 154.902 167.611 156.266 166.884 158.911C166.816 159.248 167.021 159.579 167.353 159.67C167.684 159.76 168.029 159.579 168.142 159.254C169.425 154.551 176.003 155.229 176.052 150.044C176.052 147.513 174.729 145.145 174.573 142.606C174.304 138.181 177.196 134.327 181.928 135.16C182.737 135.266 183.088 134.009 182.263 133.903Z" fill="#1E8C0E"/>
<path d="M187.231 127.942C185.074 123.974 181.16 123.043 177.327 124.227C176.796 124.442 176.28 124.693 175.783 124.978C166.124 132.123 172.98 148.256 174.467 148.134C179.37 147.726 178.88 144.868 180.522 136.752C181.106 132.978 184.391 130.216 188.212 130.286C187.955 129.477 187.627 128.693 187.231 127.942Z" fill="#8FDB5E"/>
<path d="M185.115 125.313C181.819 124.797 178.546 126.365 176.886 129.257C173.356 135.152 174.173 142.027 174.639 148.534C174.696 149.35 176.003 149.35 175.938 148.534C175.595 143.831 174.933 139.177 176.216 134.556C176.845 132.294 177.597 129.771 179.411 128.146C181.407 126.381 184.264 125.973 186.675 127.109L186.185 126.44C185.825 126.064 185.466 125.689 185.115 125.313Z" fill="#1E8C0E"/>
<path d="M111.931 166.333C111.931 166.497 115.38 174.359 116.156 174.849C116.932 175.339 119.318 173.804 120.135 174.669C120.953 175.535 121.999 177.388 120.193 178.156C118.387 178.923 113.01 179.658 112.021 179.234C111.08 178.722 110.191 178.12 109.365 177.437C109.365 177.437 108.859 173.224 108.295 173.804C107.731 174.384 107.935 178.923 107.535 179.054C107 179.074 106.465 178.997 105.958 178.825L106.473 165.541" fill="#225870"/>
<path d="M97.0018 159.271C97.0018 159.434 100.736 167.166 101.529 167.631C102.321 168.097 104.65 166.472 105.5 167.313C106.35 168.154 107.461 169.958 105.68 170.799C103.898 171.64 98.5544 172.555 97.5656 172.163C96.6059 171.686 95.6946 171.117 94.8446 170.465C94.8446 170.465 94.1908 166.276 93.6515 166.872C93.1122 167.468 93.4718 172.008 93.0795 172.147C92.5478 172.185 92.0135 172.127 91.5024 171.975V158.683" fill="#225870"/>
<path d="M110.142 94.1238C110.142 94.1238 121.132 150.379 120.225 163.451C120.225 163.451 118.044 172.163 99.1594 169.256C99.1594 169.256 97.5252 162.724 98.2524 151.653C98.9797 140.581 100.949 94.1238 100.949 94.1238H110.142Z" fill="#42210B"/>
<path d="M108.148 160.61L105.304 93.4788L93.9377 92.4255C93.9377 92.4255 88.9858 109.727 90.0726 118.071C91.1594 126.416 88.7978 137.487 88.2585 143.3C87.7682 148.51 87.5721 157.523 89.378 161.541C95.4739 163.296 102.068 162.7 108.148 160.61Z" fill="#42210B"/>
<path d="M98.3583 166.064C97.4799 161.855 96.8442 157.6 96.4544 153.319C96.2953 151.226 96.2816 149.126 96.4135 147.032C96.6074 144.875 96.9156 142.73 97.3369 140.606C97.9895 136.794 98.1652 132.916 97.8599 129.061C97.5657 125.101 96.961 121.174 96.5851 117.23C96.0262 112.785 96.1723 108.28 97.0182 103.881C97.1408 103.309 96.2664 103.064 96.1439 103.636C94.387 111.523 96.0785 119.516 96.8221 127.412C97.2759 131.487 97.199 135.604 96.5933 139.659C96.2664 141.643 95.8579 143.619 95.6454 145.619C95.4299 147.765 95.3807 149.924 95.4983 152.078C95.8417 156.854 96.5133 161.6 97.5085 166.284C97.5902 166.88 98.4972 166.644 98.3583 166.064Z" fill="white"/>
<path d="M99.061 65.1552C100.197 64.698 117.512 44.1308 118.354 44.5146C119.195 44.8983 123.878 51.5118 121.492 55.1288C119.106 58.7458 103.163 75.2632 103.163 75.2632" fill="#F25555"/>
<path d="M122.439 80.7744L118.583 79.1333L121.933 58.7295L132.964 63.8815L131.673 73.4833L130.055 83.33L122.439 80.7744L123.641 79.2313Z" fill="#124577"/>
<path d="M102.698 64.8123C103.768 65.2042 108.418 65.2042 109.937 69.5397C110.997 72.7572 111.889 76.0275 112.61 79.3374L123.788 73.0015C123.788 73.0015 124.458 82.7993 123.118 85.3304C121.778 87.8615 115.282 93.3319 109.937 90.1639C109.937 90.1639 110.436 93.9932 109.937 95.1608C109.439 96.3284 97.1492 97.7409 94.3137 94.0749C91.4782 90.4089 93.423 72.9934 93.423 72.9934" fill="#FF6161"/>
<path d="M123.6 77.9657C123.42 76.5614 123.371 75.1407 123.232 73.7282C123.617 73.4304 123.971 73.0939 124.287 72.7239C124.671 72.3157 125.038 71.9075 125.398 71.4584C125.627 70.993 125.864 70.5276 126.117 70.0622L126.395 69.4825C126.746 68.7558 127.065 67.6046 127.898 67.278C128.204 67.1485 128.552 67.1658 128.844 67.3249C129.135 67.484 129.338 67.7675 129.394 68.0945C129.533 69.36 127.375 72.0708 129.925 71.9973C130.405 71.9729 130.885 71.9866 131.363 72.0381C132.335 72.1687 133.234 72.6423 132.875 73.7609C132.823 73.9176 132.748 74.0661 132.654 74.2018C133.002 74.3116 133.289 74.562 133.444 74.8924C133.599 75.2227 133.609 75.6029 133.471 75.9409C133.324 76.3147 133.028 76.6105 132.654 76.7573C132.942 77.1026 132.942 77.6042 132.654 77.9494C132.437 78.243 132.115 78.4418 131.755 78.5046C131.784 78.6969 131.764 78.8933 131.698 79.0761C131.379 79.9416 130.235 80.2437 129.435 80.3907C127.63 80.6259 125.807 80.6752 123.992 80.5376C123.829 79.7048 123.706 78.8394 123.6 77.9657Z" fill="#F7931E"/>
<path d="M128.168 42.3101C129.279 43.3307 129.149 44.8248 128.756 46.3027C128.646 46.3073 128.54 46.3474 128.454 46.417C127.597 47.0194 126.702 47.5649 125.774 48.0499C125.05 48.4459 124.299 48.7897 123.527 49.0787C122.732 49.3579 122.001 49.7938 121.378 50.3606C120.951 49.0118 120.437 47.6919 119.841 46.4088C122.481 43.9594 124.744 42.2203 126.926 39.3789C127.163 39.0687 127.694 38.0807 128.013 38.1215C128.209 38.0939 128.408 38.1483 128.562 38.272C128.717 38.3956 128.814 38.5775 128.83 38.7747C129.018 40.0403 128.013 41.0772 127.196 41.9753C127.212 42.008 128.209 42.2693 128.168 42.3101Z" fill="#F7931E"/>
<path d="M127.751 43.4122C127.481 43.1835 127.865 42.7998 128.135 43.0284C128.358 43.2166 128.558 43.4303 128.732 43.6653C129.002 43.9757 129.202 44.3405 129.32 44.7349C129.339 44.8293 129.352 44.9247 129.361 45.0206C129.37 45.061 129.37 45.1028 129.361 45.1431C129.384 45.3402 129.325 45.5382 129.197 45.6901C128.928 45.9432 128.576 45.6901 128.38 45.4615C128.123 45.1496 127.939 44.7842 127.841 44.3919C127.759 44.098 127.604 43.7306 127.841 43.4775L127.751 43.4122Z" fill="#F7931E"/>
<path fill-rule="evenodd" clip-rule="evenodd" d="M122.104 49.9931C122.767 49.3156 123.623 48.8594 124.556 48.6868C125.218 48.621 125.854 48.3969 126.411 48.0336C126.73 47.7878 126.992 47.4758 127.179 47.1191C127.191 47.2192 127.274 47.2954 127.375 47.2987C128.013 47.446 128.661 47.0961 128.887 46.4823C128.904 46.3631 128.904 46.2422 128.887 46.123C129.359 46.0563 129.735 45.694 129.818 45.2249C129.834 44.8384 129.738 44.4555 129.54 44.1226C129.321 43.6336 129.062 43.1639 128.764 42.7183C128.789 42.4006 128.626 42.0978 128.347 41.9426C127.522 41.3438 126.369 42.3844 125.684 43.0022C125.604 43.0752 125.529 43.1423 125.463 43.2C125.193 43.4286 125.585 43.8124 125.847 43.5838C126.108 43.3552 126.484 43.0531 126.819 42.8163L126.86 42.7673C127.02 42.5874 127.219 42.4452 127.44 42.3509C127.613 42.2915 127.804 42.3171 127.955 42.4199C128.107 42.5228 128.2 42.6909 128.208 42.8734C128.192 43.089 128.085 43.2877 127.914 43.4205C127.889 43.4524 127.859 43.4856 127.827 43.5224L127.827 43.5224C127.776 43.5799 127.718 43.6462 127.653 43.7307C127.523 43.8796 127.4 44.035 127.285 44.1961C127.004 44.6391 126.978 45.0877 126.953 45.545C126.934 45.8716 126.915 46.2027 126.803 46.5394C126.426 47.6758 125.492 47.8881 124.516 48.1099C124.328 48.1526 124.139 48.1957 123.951 48.2459C123.095 48.4863 122.319 48.9515 121.704 49.5931C121.633 49.6645 121.605 49.7687 121.631 49.8663C121.657 49.9639 121.733 50.0402 121.831 50.0663C121.929 50.0925 122.033 50.0646 122.104 49.9931ZM128.086 44.09C128.257 43.8765 128.415 43.6529 128.56 43.4205C128.707 43.6654 128.846 43.9185 128.977 44.1798C129.131 44.41 129.239 44.6678 129.295 44.9391C129.295 45.0371 129.132 45.7556 128.879 45.6331H128.813C128.623 45.0957 128.38 44.5787 128.086 44.09ZM127.4 45.8777C127.39 46.2055 127.38 46.5343 127.269 46.8497L127.293 46.8252C127.349 46.7977 127.412 46.7891 127.473 46.8007C128.266 46.9068 128.372 46.2373 128.159 45.6331C128.03 45.2687 127.874 44.914 127.694 44.5717L127.612 44.7268C127.425 45.0921 127.413 45.4841 127.4 45.8777Z" fill="#42210B"/>
<path d="M109.202 51.0136C109.897 51.4545 109.872 62.4851 106.751 63.8486C102.665 65.6286 99.3555 60.7787 98.9715 58.1741C98.5874 55.5695 101.104 45.8942 109.202 51.0136Z" fill="#F7931E"/>
<path d="M87.5719 68.7884C88.1613 68.408 88.6605 67.9037 89.0346 67.3106C89.2536 66.5778 89.3421 65.8123 89.2961 65.0489C89.4023 63.1874 89.8844 61.2115 91.6086 60.1501C92.7036 59.4969 94.2643 60.0684 95.1795 59.0723C96.2173 57.9374 95.8741 56.2718 95.9967 54.8838C96.7321 47.6742 107.363 46.3679 110.787 52.2384C111.964 54.1714 111.414 56.6878 109.537 57.9537C109.028 58.2953 108.451 58.5211 107.845 58.6151C106.963 58.7539 106.105 58.7294 105.721 59.6847C105.157 61.1053 106.195 62.575 106.709 63.8487C107.527 65.8164 107.764 68.6496 105.835 70.0784C104.872 70.6311 103.822 71.0175 102.73 71.2215C102.267 71.3249 101.844 71.5604 101.512 71.8992C100.998 72.5442 101.324 73.4342 101.431 74.1608C101.494 74.5447 101.494 74.9364 101.431 75.3202C101.558 76.0573 101.341 76.8121 100.842 77.3696C99.6902 78.7739 97.5738 78.8148 95.8904 78.7331C93.9401 78.6306 92.0269 78.1597 90.2522 77.3451C88.6914 76.6348 86.7548 75.5407 85.954 73.9567C85.0061 72.0462 86.0847 70.0539 87.5719 68.7884Z" fill="#42210B"/>
<path opacity="0.7" d="M105.672 78.5371C105.697 80.7848 106.043 83.0174 106.702 85.1669C107.241 87.1377 108.52 88.8249 110.273 89.878C110.624 90.0903 110.273 90.6374 109.954 90.4251C108.199 89.3886 106.883 87.7485 106.252 85.812C105.462 83.4644 105.051 81.0059 105.035 78.529C105.037 78.3531 105.181 78.2124 105.357 78.2146C105.533 78.2169 105.674 78.3613 105.672 78.5371Z" fill="#124577"/>
<defs>
<linearGradient id="paint0_linear" x1="45.4038" y1="169.419" x2="66.902" y2="114.575" gradientUnits="userSpaceOnUse">
<stop offset="0.01" stop-color="#2E3192" stop-opacity="0.01"/>
<stop offset="1" stop-color="#666666"/>
</linearGradient>
<linearGradient id="paint1_linear" x1="190.575" y1="148.298" x2="200.866" y2="101.998" gradientUnits="userSpaceOnUse">
<stop offset="0.01" stop-color="#2E3192" stop-opacity="0.01"/>
<stop offset="1" stop-color="#666666"/>
</linearGradient>
<linearGradient id="paint2_linear" x1="103.276" y1="191.405" x2="113.97" y2="162.955" gradientUnits="userSpaceOnUse">
<stop offset="0.01" stop-color="#2E3192" stop-opacity="0.01"/>
<stop offset="1" stop-color="#666666"/>
</linearGradient>
<linearGradient id="paint3_linear" x1="159.378" y1="204.229" x2="169.91" y2="179.74" gradientUnits="userSpaceOnUse">
<stop offset="0.01" stop-color="#2E3192" stop-opacity="0.01"/>
<stop offset="1" stop-color="#666666"/>
</linearGradient>
</defs>
</svg>
